<svg width="695" height="537" viewBox="0 0 695 537" fill="none" xmlns="http://www.w3.org/2000/svg">
<rect width="695" height="537" fill="#1E1E1E"/>
<line x1="346.694" y1="293.096" x2="180.199" y2="70.5991" stroke="white" stroke-opacity="0.27" stroke-width="2"/>
<line x1="294.2" y1="222.6" x2="252.2" y2="166.6" stroke="#8336B9" stroke-width="2"/>
<line x1="346.295" y1="291.291" x2="543.295" y2="95.2911" stroke="white" stroke-opacity="0.27" stroke-width="2"/>
<line x1="481.836" y1="156.109" x2="432.29" y2="205.558" stroke="#1FECFD" stroke-width="2"/>
<line x1="239.74" y1="302.995" x2="170.102" y2="310.101" stroke="#8336B9" stroke-width="2"/>
<line x1="268.839" y1="263.399" x2="203.636" y2="237.931" stroke="#8336B9" stroke-width="2"/>
<line x1="346.242" y1="292.987" x2="146.64" y2="215.933" stroke="white" stroke-opacity="0.27" stroke-width="2"/>
<line x1="346.659" y1="292.995" x2="70.0978" y2="320.178" stroke="white" stroke-opacity="0.27" stroke-width="2"/>
<line x1="280.007" y1="356.733" x2="228.68" y2="404.33" stroke="#8336B9" stroke-width="2"/>
<line x1="348.603" y1="292.732" x2="176.681" y2="452.732" stroke="white" stroke-opacity="0.27" stroke-width="2"/>
<line x1="514.517" y1="234.946" x2="448.325" y2="257.721" stroke="#1FECFD" stroke-width="2"/>
<line x1="346.673" y1="293.208" x2="575.673" y2="214.055" stroke="white" stroke-opacity="0.27" stroke-width="2"/>
<line x1="516.262" y1="380.881" x2="454.529" y2="347.882" stroke="#1FECFD" stroke-width="2"/>
<line x1="348.473" y1="291.119" x2="593.383" y2="422.436" stroke="white" stroke-opacity="0.27" stroke-width="2"/>
<line x1="457.772" y1="429.588" x2="414.392" y2="374.651" stroke="#1FECFD" stroke-width="2"/>
<line x1="347.783" y1="291.378" x2="486.783" y2="466.378" stroke="white" stroke-opacity="0.27" stroke-width="2"/>
<line x1="536.925" y1="299.382" x2="466.966" y2="296.999" stroke="#1FECFD" stroke-width="2"/>
<line x1="347.033" y1="293.001" x2="624.779" y2="302.056" stroke="white" stroke-opacity="0.27" stroke-width="2"/>
<circle cx="347" cy="292" r="99.5" stroke="white" stroke-opacity="0.27"/>
<circle cx="347" cy="292" r="69.5" stroke="white" stroke-opacity="0.27"/>
<circle cx="346.5" cy="291.5" r="42" fill="#0A1628" stroke="#1FECFD"/>
<circle cx="544" cy="96" r="69.5" stroke="white" stroke-opacity="0.27"/>
<circle cx="544" cy="96" r="48.5" stroke="white" stroke-opacity="0.27"/>
<circle cx="543.65" cy="95.65" r="29.25" fill="#0A1628" stroke="#1FECFD"/>
<circle cx="181" cy="70" r="69.5" stroke="white" stroke-opacity="0.27"/>
<circle cx="181" cy="70" r="48.5" stroke="white" stroke-opacity="0.27"/>
<circle cx="180.65" cy="69.65" r="29.25" fill="#0A1628" stroke="#8336B9"/>
<circle cx="147" cy="215" r="69.5" stroke="white" stroke-opacity="0.27"/>
<circle cx="147" cy="215" r="48.5" stroke="white" stroke-opacity="0.27"/>
<circle cx="146.65" cy="214.65" r="29.25" fill="#0A1628" stroke="#8336B9"/>
<circle cx="70" cy="318" r="69.5" stroke="white" stroke-opacity="0.27"/>
<circle cx="70" cy="318" r="48.5" stroke="white" stroke-opacity="0.27"/>
<circle cx="69.65" cy="317.65" r="29.25" fill="#0A1628" stroke="#8336B9"/>
<circle cx="177" cy="452" r="69.5" stroke="white" stroke-opacity="0.27"/>
<circle cx="177" cy="452" r="48.5" stroke="white" stroke-opacity="0.27"/>
<circle cx="176.65" cy="451.65" r="29.25" fill="#0A1628" stroke="#8336B9"/>
<circle cx="576" cy="215" r="69.5" stroke="white" stroke-opacity="0.27"/>
<circle cx="576" cy="215" r="48.5" stroke="white" stroke-opacity="0.27"/>
<circle cx="575.65" cy="214.65" r="29.25" fill="#0A1628" stroke="#1FECFD"/>
<circle cx="625" cy="303" r="69.5" stroke="white" stroke-opacity="0.27"/>
<circle cx="625" cy="303" r="48.5" stroke="white" stroke-opacity="0.27"/>
<circle cx="624.65" cy="302.65" r="29.25" fill="#0A1628" stroke="#1FECFD"/>
<circle cx="593" cy="423" r="69.5" stroke="white" stroke-opacity="0.27"/>
<circle cx="593" cy="423" r="48.5" stroke="white" stroke-opacity="0.27"/>
<circle cx="592.65" cy="422.65" r="29.25" fill="#0A1628" stroke="#1FECFD"/>
<circle cx="487" cy="467" r="69.5" stroke="white" stroke-opacity="0.27"/>
<circle cx="487" cy="467" r="48.5" stroke="white" stroke-opacity="0.27"/>
<circle cx="486.65" cy="466.65" r="29.25" fill="#0A1628" stroke="#1FECFD"/>
</svg>
