<svg width="351" height="226" viewBox="0 0 351 226" fill="none" xmlns="http://www.w3.org/2000/svg">
<path d="M306.073 132.367C303.523 136.785 298.43 139.543 291.255 140.663C284.085 141.783 274.916 141.251 264.36 139.167C243.253 134.998 216.71 124.643 189.748 109.077C162.787 93.5103 140.548 75.7011 126.384 59.5059C119.3 51.4064 114.256 43.7321 111.64 36.9629C109.023 30.1883 108.866 24.3993 111.416 19.982C113.966 15.5648 119.058 12.8066 126.234 11.6861C133.404 10.5665 142.572 11.0981 153.129 13.1829C174.236 17.3513 200.779 27.7064 227.74 43.2727C254.702 58.839 276.941 76.6482 291.105 92.8434C298.188 100.943 303.233 108.617 305.848 115.386C308.466 122.161 308.623 127.95 306.073 132.367Z" stroke="url(#paint0_linear_0_1)" stroke-opacity="0.28"/>
<path d="M329.704 172.62C326.116 178.836 318.907 182.66 308.786 184.163C298.672 185.665 285.737 184.833 270.847 181.82C241.072 175.796 203.595 161.076 165.488 139.074C127.38 117.073 95.8936 91.9776 75.789 69.2037C65.735 57.8148 58.5467 47.0281 54.7905 37.5182C51.0318 28.0021 50.7388 19.8472 54.3275 13.6314C57.9162 7.41564 65.125 3.59191 75.2455 2.08897C85.3595 0.587006 98.2952 1.41886 113.185 4.43148C142.96 10.4557 180.437 25.1762 218.544 47.1775C256.652 69.1787 288.138 94.2742 308.243 117.048C318.297 128.437 325.485 139.224 329.241 148.734C333 158.25 333.293 166.405 329.704 172.62Z" stroke="url(#paint1_linear_0_1)" stroke-opacity="0.28"/>
<path d="M346.91 210.333C342.756 217.81 334.072 222.406 321.748 224.215C309.434 226.022 293.582 225.03 275.264 221.427C238.632 214.221 192.251 196.597 144.814 170.25C97.3772 143.904 57.9026 113.844 32.4257 86.5544C19.6853 72.9076 10.4654 59.9752 5.49177 48.5658C0.514338 37.1478 -0.174447 27.3464 3.97873 19.8686C8.1319 12.3908 16.8167 7.79545 29.1403 5.98649C41.4547 4.17889 57.3062 5.17106 75.6247 8.77449C112.256 15.9802 158.638 33.6044 206.074 59.9508C253.511 86.2972 292.986 116.358 318.463 143.647C331.203 157.294 340.423 170.226 345.397 181.635C350.374 193.053 351.063 202.855 346.91 210.333Z" stroke="url(#paint2_linear_0_1)" stroke-opacity="0.28"/>
<defs>
<linearGradient id="paint0_linear_0_1" x1="227.99" y1="42.8397" x2="189.498" y2="109.51" gradientUnits="userSpaceOnUse">
<stop stop-color="white" stop-opacity="0"/>
<stop offset="0.442708" stop-color="white"/>
</linearGradient>
<linearGradient id="paint1_linear_0_1" x1="218.794" y1="46.7445" x2="165.238" y2="139.507" gradientUnits="userSpaceOnUse">
<stop stop-color="white" stop-opacity="0"/>
<stop offset="0.682292" stop-color="white"/>
</linearGradient>
<linearGradient id="paint2_linear_0_1" x1="206.317" y1="59.5137" x2="144.571" y2="170.687" gradientUnits="userSpaceOnUse">
<stop stop-color="white" stop-opacity="0"/>
<stop offset="0.78125" stop-color="white"/>
</linearGradient>
</defs>
</svg>
